<?xml version='1.0' encoding='UTF-8' standalone='no'?>
<!-- Created with Fritzing (http://www.fritzing.org/) -->
<svg xmlns:svg='http://www.w3.org/2000/svg' xmlns='http://www.w3.org/2000/svg' version='1.2' baseProfile='tiny' x='0in' y='0in' width='4in' height='2.73301in' viewBox='0 0 288 196.777' >
<g partID='60080'><g transform='translate(266.4,76.65)' ><g xmlns="http://www.w3.org/2000/svg" id="schematic">
<line stroke-linecap="round" xmlns="http://www.w3.org/2000/svg" stroke-width="0.699999" stroke="#787878" id="connector0pin" stroke-linejoin="round" fill="none" y1="3.6" y2="3.6" x1="0.349999" x2="13.7"/>
<g y="3.25" xmlns="http://www.w3.org/2000/svg" id="connector0terminal" height="0.699999" width="0" x="0"/>
<circle xmlns="http://www.w3.org/2000/svg" stroke-width="0.699999" stroke="#787878" r="2.9" fill="none" cx="17.3" cy="3.6"/>
<line stroke-linecap="round" xmlns="http://www.w3.org/2000/svg" stroke-width="0.699999" stroke="#787878" id="connector1pin" stroke-linejoin="round" fill="none" y1="10.8" y2="10.8" x1="0.349999" x2="13.7"/>
<g y="10.45" xmlns="http://www.w3.org/2000/svg" id="connector1terminal" height="0.699999" width="0" x="0"/>
<circle xmlns="http://www.w3.org/2000/svg" stroke-width="0.699999" stroke="#787878" r="2.9" fill="none" cx="17.3" cy="10.8"/>
</g>
</g></g><g partID='60050'><g transform='translate(266.4,47.85)' ><g xmlns="http://www.w3.org/2000/svg" id="schematic">
<line stroke-linecap="round" xmlns="http://www.w3.org/2000/svg" stroke-width="0.699999" stroke="#787878" id="connector0pin" stroke-linejoin="round" fill="none" y1="3.6" y2="3.6" x1="0.349999" x2="13.7"/>
<g y="3.25" xmlns="http://www.w3.org/2000/svg" id="connector0terminal" height="0.699999" width="0" x="0"/>
<circle xmlns="http://www.w3.org/2000/svg" stroke-width="0.699999" stroke="#787878" r="2.9" fill="none" cx="17.3" cy="3.6"/>
<line stroke-linecap="round" xmlns="http://www.w3.org/2000/svg" stroke-width="0.699999" stroke="#787878" id="connector1pin" stroke-linejoin="round" fill="none" y1="10.8" y2="10.8" x1="0.349999" x2="13.7"/>
<g y="10.45" xmlns="http://www.w3.org/2000/svg" id="connector1terminal" height="0.699999" width="0" x="0"/>
<circle xmlns="http://www.w3.org/2000/svg" stroke-width="0.699999" stroke="#787878" r="2.9" fill="none" cx="17.3" cy="10.8"/>
</g>
</g></g><g partID='60390'><g transform='translate(256.104,131)' ><g transform='matrix(-4.44089e-16,-1,1,-4.44089e-16,0,0)'  ><g xmlns="http://www.w3.org/2000/svg" id="schematic">
<line stroke-linecap="round" xmlns="http://www.w3.org/2000/svg" stroke-width="0.432002" stroke="#000000" y1="3.096" y2="0.216" class="other" x1="7.55002" x2="8.63003"/>
<line stroke-linecap="round" xmlns="http://www.w3.org/2000/svg" stroke-width="0.432002" stroke="#000000" y1="0.216" y2="5.976" class="other" x1="8.63003" x2="10.43"/>
<line stroke-linecap="round" xmlns="http://www.w3.org/2000/svg" stroke-width="0.432002" stroke="#000000" y1="5.976" y2="0.216" class="other" x1="10.43" x2="12.23"/>
<line stroke-linecap="round" xmlns="http://www.w3.org/2000/svg" stroke-width="0.432002" stroke="#000000" y1="0.216" y2="5.976" class="other" x1="12.23" x2="14.03"/>
<line stroke-linecap="round" xmlns="http://www.w3.org/2000/svg" stroke-width="0.432002" stroke="#000000" y1="5.976" y2="0.216" class="other" x1="14.03" x2="15.8301"/>
<line stroke-linecap="round" xmlns="http://www.w3.org/2000/svg" stroke-width="0.432002" stroke="#000000" y1="0.216" y2="5.976" class="other" x1="15.8301" x2="17.6301"/>
<line stroke-linecap="round" xmlns="http://www.w3.org/2000/svg" stroke-width="0.432002" stroke="#000000" y1="5.976" y2="0.216" class="other" x1="17.6301" x2="19.4301"/>
<line stroke-linecap="round" xmlns="http://www.w3.org/2000/svg" stroke-width="0.432002" stroke="#000000" y1="0.216" y2="5.976" class="other" x1="19.4301" x2="21.2301"/>
<line stroke-linecap="round" xmlns="http://www.w3.org/2000/svg" stroke-width="0.432002" stroke="#000000" y1="5.976" y2="3.096" class="other" x1="21.2301" x2="21.9501"/>
<line stroke-linecap="round" xmlns="http://www.w3.org/2000/svg" stroke-width="0.700001" connectorname="2" stroke="#787878" id="connector1pin" y1="3.096" y2="3.096" class="pin" x1="29.1502" x2="21.9501"/>
<g y="3.096" xmlns="http://www.w3.org/2000/svg" stroke-width="0" stroke="none" id="connector1terminal" height="0.000283465" width="0.000283466" fill="none" class="terminal" x="29.1502"/>
<text y="2.046" xmlns="http://www.w3.org/2000/svg" font-family="'Droid Sans'" stroke-width="0" stroke="none" fill="#8c8c8c" text-anchor="middle" font-size="2.50001" class="text" x="25.5501">2</text>
<line stroke-linecap="round" xmlns="http://www.w3.org/2000/svg" stroke-width="0.700001" connectorname="1" stroke="#787878" id="connector0pin" y1="3.096" y2="3.096" class="pin" x1="0.350001" x2="7.55002"/>
<g y="3.096" xmlns="http://www.w3.org/2000/svg" stroke-width="0" stroke="none" id="connector0terminal" height="0.000283465" width="0.000283466" fill="none" class="terminal" x="0.350001"/>
<text y="2.046" xmlns="http://www.w3.org/2000/svg" font-family="'Droid Sans'" stroke-width="0" stroke="none" fill="#8c8c8c" text-anchor="middle" font-size="2.50001" class="text" x="3.95001">1</text>
</g>
</g></g></g><g partID='60360'><g transform='translate(234.504,131)' ><g transform='matrix(-4.44089e-16,-1,1,-4.44089e-16,0,0)'  ><g xmlns="http://www.w3.org/2000/svg" id="schematic">
<line stroke-linecap="round" xmlns="http://www.w3.org/2000/svg" stroke-width="0.432002" stroke="#000000" y1="3.096" y2="0.216" class="other" x1="7.55002" x2="8.63003"/>
<line stroke-linecap="round" xmlns="http://www.w3.org/2000/svg" stroke-width="0.432002" stroke="#000000" y1="0.216" y2="5.976" class="other" x1="8.63003" x2="10.43"/>
<line stroke-linecap="round" xmlns="http://www.w3.org/2000/svg" stroke-width="0.432002" stroke="#000000" y1="5.976" y2="0.216" class="other" x1="10.43" x2="12.23"/>
<line stroke-linecap="round" xmlns="http://www.w3.org/2000/svg" stroke-width="0.432002" stroke="#000000" y1="0.216" y2="5.976" class="other" x1="12.23" x2="14.03"/>
<line stroke-linecap="round" xmlns="http://www.w3.org/2000/svg" stroke-width="0.432002" stroke="#000000" y1="5.976" y2="0.216" class="other" x1="14.03" x2="15.8301"/>
<line stroke-linecap="round" xmlns="http://www.w3.org/2000/svg" stroke-width="0.432002" stroke="#000000" y1="0.216" y2="5.976" class="other" x1="15.8301" x2="17.6301"/>
<line stroke-linecap="round" xmlns="http://www.w3.org/2000/svg" stroke-width="0.432002" stroke="#000000" y1="5.976" y2="0.216" class="other" x1="17.6301" x2="19.4301"/>
<line stroke-linecap="round" xmlns="http://www.w3.org/2000/svg" stroke-width="0.432002" stroke="#000000" y1="0.216" y2="5.976" class="other" x1="19.4301" x2="21.2301"/>
<line stroke-linecap="round" xmlns="http://www.w3.org/2000/svg" stroke-width="0.432002" stroke="#000000" y1="5.976" y2="3.096" class="other" x1="21.2301" x2="21.9501"/>
<line stroke-linecap="round" xmlns="http://www.w3.org/2000/svg" stroke-width="0.700001" connectorname="2" stroke="#787878" id="connector1pin" y1="3.096" y2="3.096" class="pin" x1="29.1502" x2="21.9501"/>
<g y="3.096" xmlns="http://www.w3.org/2000/svg" stroke-width="0" stroke="none" id="connector1terminal" height="0.000283465" width="0.000283466" fill="none" class="terminal" x="29.1502"/>
<text y="2.046" xmlns="http://www.w3.org/2000/svg" font-family="'Droid Sans'" stroke-width="0" stroke="none" fill="#8c8c8c" text-anchor="middle" font-size="2.50001" class="text" x="25.5501">2</text>
<line stroke-linecap="round" xmlns="http://www.w3.org/2000/svg" stroke-width="0.700001" connectorname="1" stroke="#787878" id="connector0pin" y1="3.096" y2="3.096" class="pin" x1="0.350001" x2="7.55002"/>
<g y="3.096" xmlns="http://www.w3.org/2000/svg" stroke-width="0" stroke="none" id="connector0terminal" height="0.000283465" width="0.000283466" fill="none" class="terminal" x="0.350001"/>
<text y="2.046" xmlns="http://www.w3.org/2000/svg" font-family="'Droid Sans'" stroke-width="0" stroke="none" fill="#8c8c8c" text-anchor="middle" font-size="2.50001" class="text" x="3.95001">1</text>
</g>
</g></g></g><g partID='58250'><g transform='translate(93.5999,15.4501)' ><g id="schematic">
<rect y="14.85" stroke-linecap="round" stroke-width="0.9" stroke="#000000" height="135.9" width="78.3" fill="#FFFFFF" class="interior rect" x="14.85"/>
<line stroke-linecap="round" stroke-width="0.699999" stroke="#787878" id="connector61pin" y1="28.8" fill="none" y2="28.8" class="pin" x1="93.2499" x2="107.65"/>
<text y="29.4999" font-family="'Droid Sans'" stroke-width="0" stroke="none" fill="#8c8c8c" text-anchor="end" font-size="3.49999" class="text" x="91.8499">D0/RX</text>
<g y="28.4499" stroke-width="0" stroke="none" id="connector61terminal" height="0.699999" width="0.699999" fill="none" class="terminal" x="107.65"/>
<line stroke-linecap="round" stroke-width="0.699999" stroke="#787878" id="connector62pin" y1="36" fill="none" y2="36" class="pin" x1="93.2499" x2="107.65"/>
<text y="36.6999" font-family="'Droid Sans'" stroke-width="0" stroke="none" fill="#8c8c8c" text-anchor="end" font-size="3.49999" class="text" x="91.8499">D1/TX</text>
<g y="35.6499" stroke-width="0" stroke="none" id="connector62terminal" height="0.699999" width="0.699999" fill="none" class="terminal" x="107.65"/>
<line stroke-linecap="round" stroke-width="0.699999" stroke="#787878" id="connector63pin" y1="43.2" fill="none" y2="43.2" class="pin" x1="93.2499" x2="107.65"/>
<text y="43.8999" font-family="'Droid Sans'" stroke-width="0" stroke="none" fill="#8c8c8c" text-anchor="end" font-size="3.49999" class="text" x="91.8499">D2</text>
<g y="42.8499" stroke-width="0" stroke="none" id="connector63terminal" height="0.699999" width="0.699999" fill="none" class="terminal" x="107.65"/>
<line stroke-linecap="round" stroke-width="0.699999" stroke="#787878" id="connector64pin" y1="50.4" fill="none" y2="50.4" class="pin" x1="93.2499" x2="107.65"/>
<text y="51.0999" font-family="'Droid Sans'" stroke-width="0" stroke="none" fill="#8c8c8c" text-anchor="end" font-size="3.49999" class="text" x="91.8499">D3 PWM</text>
<g y="50.0499" stroke-width="0" stroke="none" id="connector64terminal" height="0.699999" width="0.699999" fill="none" class="terminal" x="107.65"/>
<line stroke-linecap="round" stroke-width="0.699999" stroke="#787878" id="connector65pin" y1="57.6" fill="none" y2="57.6" class="pin" x1="93.2499" x2="107.65"/>
<text y="58.2999" font-family="'Droid Sans'" stroke-width="0" stroke="none" fill="#8c8c8c" text-anchor="end" font-size="3.49999" class="text" x="91.8499">D4</text>
<g y="57.2499" stroke-width="0" stroke="none" id="connector65terminal" height="0.699999" width="0.699999" fill="none" class="terminal" x="107.65"/>
<line stroke-linecap="round" stroke-width="0.699999" stroke="#787878" id="connector66pin" y1="64.8" fill="none" y2="64.8" class="pin" x1="93.2499" x2="107.65"/>
<text y="65.4999" font-family="'Droid Sans'" stroke-width="0" stroke="none" fill="#8c8c8c" text-anchor="end" font-size="3.49999" class="text" x="91.8499">D5 PWM</text>
<g y="64.4499" stroke-width="0" stroke="none" id="connector66terminal" height="0.699999" width="0.699999" fill="none" class="terminal" x="107.65"/>
<line stroke-linecap="round" stroke-width="0.699999" stroke="#787878" id="connector67pin" y1="72" fill="none" y2="72" class="pin" x1="93.2499" x2="107.65"/>
<text y="72.6999" font-family="'Droid Sans'" stroke-width="0" stroke="none" fill="#8c8c8c" text-anchor="end" font-size="3.49999" class="text" x="91.8499">D6 PWM</text>
<g y="71.6499" stroke-width="0" stroke="none" id="connector67terminal" height="0.699999" width="0.699999" fill="none" class="terminal" x="107.65"/>
<line stroke-linecap="round" stroke-width="0.699999" stroke="#787878" id="connector68pin" y1="79.2" fill="none" y2="79.2" class="pin" x1="93.2499" x2="107.65"/>
<text y="79.8999" font-family="'Droid Sans'" stroke-width="0" stroke="none" fill="#8c8c8c" text-anchor="end" font-size="3.49999" class="text" x="91.8499">D7</text>
<g y="78.8499" stroke-width="0" stroke="none" id="connector68terminal" height="0.699999" width="0.699999" fill="none" class="terminal" x="107.65"/>
<line stroke-linecap="round" stroke-width="0.699999" stroke="#787878" id="connector51pin" y1="86.4" fill="none" y2="86.4" class="pin" x1="93.2499" x2="107.65"/>
<text y="87.0999" font-family="'Droid Sans'" stroke-width="0" stroke="none" fill="#8c8c8c" text-anchor="end" font-size="3.49999" class="text" x="91.8499">D8</text>
<g y="86.0499" stroke-width="0" stroke="none" id="connector51terminal" height="0.699999" width="0.699999" fill="none" class="terminal" x="107.65"/>
<line stroke-linecap="round" stroke-width="0.699999" stroke="#787878" id="connector52pin" y1="93.6" fill="none" y2="93.6" class="pin" x1="93.2499" x2="107.65"/>
<text y="94.2999" font-family="'Droid Sans'" stroke-width="0" stroke="none" fill="#8c8c8c" text-anchor="end" font-size="3.49999" class="text" x="91.8499">D9 PWM</text>
<g y="93.2499" stroke-width="0" stroke="none" id="connector52terminal" height="0.699999" width="0.699999" fill="none" class="terminal" x="107.65"/>
<line stroke-linecap="round" stroke-width="0.699999" stroke="#787878" id="connector53pin" y1="100.8" fill="none" y2="100.8" class="pin" x1="93.2499" x2="107.65"/>
<text y="101.5" font-family="'Droid Sans'" stroke-width="0" stroke="none" fill="#8c8c8c" text-anchor="end" font-size="3.49999" class="text" x="91.8499">D10 PWM/SS</text>
<g y="100.45" stroke-width="0" stroke="none" id="connector53terminal" height="0.699999" width="0.699999" fill="none" class="terminal" x="107.65"/>
<line stroke-linecap="round" stroke-width="0.699999" stroke="#787878" id="connector54pin" y1="108" fill="none" y2="108" class="pin" x1="93.2499" x2="107.65"/>
<text y="108.7" font-family="'Droid Sans'" stroke-width="0" stroke="none" fill="#8c8c8c" text-anchor="end" font-size="3.49999" class="text" x="91.8499">D11 PWM/MOSI</text>
<g y="107.65" stroke-width="0" stroke="none" id="connector54terminal" height="0.699999" width="0.699999" fill="none" class="terminal" x="107.65"/>
<line stroke-linecap="round" stroke-width="0.699999" stroke="#787878" id="connector55pin" y1="115.2" fill="none" y2="115.2" class="pin" x1="93.2499" x2="107.65"/>
<text y="115.9" font-family="'Droid Sans'" stroke-width="0" stroke="none" fill="#8c8c8c" text-anchor="end" font-size="3.49999" class="text" x="91.8499">D12/MISO</text>
<g y="114.85" stroke-width="0" stroke="none" id="connector55terminal" height="0.699999" width="0.699999" fill="none" class="terminal" x="107.65"/>
<line stroke-linecap="round" stroke-width="0" stroke="none" id="connector41pin" y1="122.4" fill="none" y2="122.4" class="pin" x1="93.2499" x2="107.65"/>
<rect y="122.05" stroke-width="0" stroke="none" id="connector41terminal" height="0.699999" width="0.699999" fill="none" class="terminal" x="107.65"/>
<line stroke-linecap="round" stroke-width="0.699999" stroke="#787878" id="connector56pin" y1="122.4" fill="none" y2="122.4" class="pin" x1="93.2499" x2="107.65"/>
<text y="123.1" font-family="'Droid Sans'" stroke-width="0" stroke="none" fill="#8c8c8c" text-anchor="end" font-size="3.49999" class="text" x="91.8499">D13/SCK</text>
<g y="122.05" stroke-width="0" stroke="none" id="connector56terminal" height="0.699999" width="0.699999" fill="none" class="terminal" x="107.65"/>
<line stroke-linecap="round" stroke-width="0" stroke="none" id="connector43pin" y1="28.8" fill="none" y2="28.8" class="pin" x1="0.349999" x2="14.75"/>
<rect y="28.4499" stroke-width="0" stroke="none" id="connector43terminal" height="0.699999" width="0.699999" fill="none" class="terminal" x="-0.349999"/>
<line stroke-linecap="round" stroke-width="0.699999" stroke="#787878" id="connector85pin" y1="28.8" fill="none" y2="28.8" class="pin" x1="0.349999" x2="14.75"/>
<text y="29.4999" font-family="'Droid Sans'" stroke-width="0" stroke="none" fill="#8c8c8c" text-anchor="start" font-size="3.49999" class="text" x="16.15">RESET</text>
<g y="28.4499" stroke-width="0" stroke="none" id="connector85terminal" height="0.699999" width="0.699999" fill="none" class="terminal" x="-0.349999"/>
<line stroke-linecap="round" stroke-width="0.699999" stroke="#787878" id="connector49pin" y1="36" fill="none" y2="36" class="pin" x1="0.349999" x2="14.75"/>
<text y="36.6999" font-family="'Droid Sans'" stroke-width="0" stroke="none" fill="#8c8c8c" text-anchor="start" font-size="3.49999" class="text" x="16.15">RESET2</text>
<rect y="35.6499" stroke-width="0" stroke="none" id="connector49terminal" height="0.699999" width="0.699999" fill="none" class="terminal" x="-0.349999"/>
<line stroke-linecap="round" stroke-width="0.699999" stroke="#787878" id="connector58pin" y1="43.2" fill="none" y2="43.2" class="pin" x1="0.349999" x2="14.75"/>
<text y="43.8999" font-family="'Droid Sans'" stroke-width="0" stroke="none" fill="#8c8c8c" text-anchor="start" font-size="3.49999" class="text" x="16.15">AREF</text>
<g y="42.8499" stroke-width="0" stroke="none" id="connector58terminal" height="0.699999" width="0.699999" fill="none" class="terminal" x="-0.349999"/>
<line stroke-linecap="round" stroke-width="0.699999" stroke="#787878" id="connector84pin" y1="50.4" fill="none" y2="50.4" class="pin" x1="0.349999" x2="14.75"/>
<text y="51.0999" font-family="'Droid Sans'" stroke-width="0" stroke="none" fill="#8c8c8c" text-anchor="start" font-size="3.49999" class="text" x="16.15">ioref</text>
<g y="50.0499" stroke-width="0" stroke="none" id="connector84terminal" height="0.699999" width="0.699999" fill="none" class="terminal" x="-0.349999"/>
<line stroke-linecap="round" stroke-width="0.699999" stroke="#787878" id="connector0pin" y1="64.8" fill="none" y2="64.8" class="pin" x1="0.349999" x2="14.75"/>
<text y="65.4999" font-family="'Droid Sans'" stroke-width="0" stroke="none" fill="#8c8c8c" text-anchor="start" font-size="3.49999" class="text" x="16.15">A0</text>
<g y="64.4499" stroke-width="0" stroke="none" id="connector0terminal" height="0.699999" width="0.699999" fill="none" class="terminal" x="-0.349999"/>
<line stroke-linecap="round" stroke-width="0.699999" stroke="#787878" id="connector1pin" y1="72" fill="none" y2="72" class="pin" x1="0.349999" x2="14.75"/>
<text y="72.6999" font-family="'Droid Sans'" stroke-width="0" stroke="none" fill="#8c8c8c" text-anchor="start" font-size="3.49999" class="text" x="16.15">A1</text>
<g y="71.6499" stroke-width="0" stroke="none" id="connector1terminal" height="0.699999" width="0.699999" fill="none" class="terminal" x="-0.349999"/>
<line stroke-linecap="round" stroke-width="0.699999" stroke="#787878" id="connector2pin" y1="79.2" fill="none" y2="79.2" class="pin" x1="0.349999" x2="14.75"/>
<text y="79.8999" font-family="'Droid Sans'" stroke-width="0" stroke="none" fill="#8c8c8c" text-anchor="start" font-size="3.49999" class="text" x="16.15">A2</text>
<g y="78.8499" stroke-width="0" stroke="none" id="connector2terminal" height="0.699999" width="0.699999" fill="none" class="terminal" x="-0.349999"/>
<line stroke-linecap="round" stroke-width="0.699999" stroke="#787878" id="connector3pin" y1="86.4" fill="none" y2="86.4" class="pin" x1="0.349999" x2="14.75"/>
<text y="87.0999" font-family="'Droid Sans'" stroke-width="0" stroke="none" fill="#8c8c8c" text-anchor="start" font-size="3.49999" class="text" x="16.15">A3</text>
<g y="86.0499" stroke-width="0" stroke="none" id="connector3terminal" height="0.699999" width="0.699999" fill="none" class="terminal" x="-0.349999"/>
<line stroke-linecap="round" stroke-width="0" stroke="none" id="connector48pin" y1="93.6" fill="none" y2="93.6" class="pin" x1="0.349999" x2="14.75"/>
<rect y="93.2499" stroke-width="0" stroke="none" id="connector48terminal" height="0.699999" width="0.699999" fill="none" class="terminal" x="-0.349999"/>
<line stroke-linecap="round" stroke-width="0" stroke="none" id="connector45pin" y1="93.6" fill="none" y2="93.6" class="pin" x1="0.349999" x2="14.75"/>
<rect y="93.2499" stroke-width="0" stroke="none" id="connector45terminal" height="0.699999" width="0.699999" fill="none" class="terminal" x="-0.349999"/>
<line stroke-linecap="round" stroke-width="0" stroke="none" id="connector4pin" y1="93.6" fill="none" y2="93.6" class="pin" x1="0.349999" x2="14.75"/>
<g y="93.2499" stroke-width="0" stroke="none" id="connector4terminal" height="0.699999" width="0.699999" fill="none" class="terminal" x="-0.349999"/>
<line stroke-linecap="round" stroke-width="0" stroke="none" id="connector39pin" y1="93.6" fill="none" y2="93.6" class="pin" x1="0.349999" x2="14.75"/>
<rect y="93.2499" stroke-width="0" stroke="none" id="connector39terminal" height="0.699999" width="0.699999" fill="none" class="terminal" x="-0.349999"/>
<line stroke-linecap="round" stroke-width="0" stroke="none" id="connector47pin" y1="93.6" fill="none" y2="93.6" class="pin" x1="0.349999" x2="14.75"/>
<rect y="93.2499" stroke-width="0" stroke="none" id="connector47terminal" height="0.699999" width="0.699999" fill="none" class="terminal" x="-0.349999"/>
<line stroke-linecap="round" stroke-width="0" stroke="none" id="connector42pin" y1="93.6" fill="none" y2="93.6" class="pin" x1="0.349999" x2="14.75"/>
<rect y="93.2499" stroke-width="0" stroke="none" id="connector42terminal" height="0.699999" width="0.699999" fill="none" class="terminal" x="-0.349999"/>
<line stroke-linecap="round" stroke-width="0.699999" stroke="#787878" id="connector59pin" y1="93.6" fill="none" y2="93.6" class="pin" x1="0.349999" x2="14.75"/>
<text y="94.2999" font-family="'Droid Sans'" stroke-width="0" stroke="none" fill="#8c8c8c" text-anchor="start" font-size="3.49999" class="text" x="16.15">A4/SDA</text>
<g y="93.2499" stroke-width="0" stroke="none" id="connector59terminal" height="0.699999" width="0.699999" fill="none" class="terminal" x="-0.349999"/>
<line stroke-linecap="round" stroke-width="0" stroke="none" id="connector5pin" y1="100.8" fill="none" y2="100.8" class="pin" x1="0.349999" x2="14.75"/>
<g y="100.45" stroke-width="0" stroke="none" id="connector5terminal" height="0.699999" width="0.699999" fill="none" class="terminal" x="-0.349999"/>
<line stroke-linecap="round" stroke-width="0.699999" stroke="#787878" id="connector60pin" y1="100.8" fill="none" y2="100.8" class="pin" x1="0.349999" x2="14.75"/>
<text y="101.5" font-family="'Droid Sans'" stroke-width="0" stroke="none" fill="#8c8c8c" text-anchor="start" font-size="3.49999" class="text" x="16.15">A5/SCL</text>
<g y="100.45" stroke-width="0" stroke="none" id="connector60terminal" height="0.699999" width="0.699999" fill="none" class="terminal" x="-0.349999"/>
<line stroke-linecap="round" stroke-width="0.699999" stroke="#787878" id="connector91pin" y1="136.8" fill="none" y2="136.8" class="pin" x1="0.349999" x2="14.75"/>
<text y="137.5" font-family="'Droid Sans'" stroke-width="0" stroke="none" fill="#8c8c8c" text-anchor="start" font-size="3.49999" class="text" x="16.15">N/C</text>
<g y="136.45" stroke-width="0" stroke="none" id="connector91terminal" height="0.699999" width="0.699999" fill="none" class="terminal" x="-0.349999"/>
<line stroke-linecap="round" stroke-width="0" stroke="none" id="connector88pin" y1="150.85" fill="none" y2="165.25" class="pin" x1="57.6" x2="57.6"/>
<g y="165.25" stroke-width="0" stroke="none" id="connector88terminal" height="0.699999" width="0.699999" fill="none" class="terminal" x="57.2499"/>
<line stroke-linecap="round" stroke-width="0" stroke="none" id="connector57pin" y1="150.85" fill="none" y2="165.25" class="pin" x1="57.6" x2="57.6"/>
<g y="165.25" stroke-width="0" stroke="none" id="connector57terminal" height="0.699999" width="0.699999" fill="none" class="terminal" x="57.2499"/>
<line stroke-linecap="round" stroke-width="0" stroke="none" id="connector44pin" y1="150.85" fill="none" y2="165.25" class="pin" x1="57.6" x2="57.6"/>
<rect y="165.25" stroke-width="0" stroke="none" id="connector44terminal" height="0.699999" width="0.699999" fill="none" class="terminal" x="57.2499"/>
<line stroke-linecap="round" stroke-width="0" stroke="none" id="connector50pin" y1="150.85" fill="none" y2="165.25" class="pin" x1="57.6" x2="57.6"/>
<rect y="165.25" stroke-width="0" stroke="none" id="connector50terminal" height="0.699999" width="0.699999" fill="none" class="terminal" x="57.2499"/>
<line stroke-linecap="round" stroke-width="0.699999" stroke="#787878" id="connector89pin" y1="150.85" fill="none" y2="165.25" class="pin" x1="57.6" x2="57.6"/>
<g transform="matrix(1, 0, 0, 1, 58.2999, 149.45)">
<g>
<g transform="rotate(270)">
<g>
<text y="0" font-family="'Droid Sans'" stroke-width="0" stroke="none" fill="#8c8c8c" text-anchor="start" font-size="3.49999" class="text" x="0">GND</text>
</g>
</g>
</g>
</g>
<g y="165.25" stroke-width="0" stroke="none" id="connector89terminal" height="0.699999" width="0.699999" fill="none" class="terminal" x="57.2499"/>
<line stroke-linecap="round" stroke-width="0.699999" stroke="#787878" id="connector86pin" y1="0.349999" fill="none" y2="14.75" class="pin" x1="36" x2="36"/>
<g transform="matrix(1, 0, 0, 1, 36.6999, 16.15)">
<g>
<g transform="rotate(270)">
<g>
<text y="0" font-family="'Droid Sans'" stroke-width="0" stroke="none" fill="#8c8c8c" text-anchor="end" font-size="3.49999" class="text" x="0">3V3</text>
</g>
</g>
</g>
</g>
<g y="-0.349999" stroke-width="0" stroke="none" id="connector86terminal" height="0.699999" width="0.699999" fill="none" class="terminal" x="35.6499"/>
<line stroke-linecap="round" stroke-width="0" stroke="none" id="connector40pin" y1="0.349999" fill="none" y2="14.75" class="pin" x1="50.4" x2="50.4"/>
<rect y="-0.349999" stroke-width="0" stroke="none" id="connector40terminal" height="0.699999" width="0.699999" fill="none" class="terminal" x="50.0499"/>
<line stroke-linecap="round" stroke-width="0" stroke="none" id="connector46pin" y1="0.349999" fill="none" y2="14.75" class="pin" x1="50.4" x2="50.4"/>
<rect y="-0.349999" stroke-width="0" stroke="none" id="connector46terminal" height="0.699999" width="0.699999" fill="none" class="terminal" x="50.0499"/>
<line stroke-linecap="round" stroke-width="0.699999" stroke="#787878" id="connector87pin" y1="0.349999" fill="none" y2="14.75" class="pin" x1="50.4" x2="50.4"/>
<g transform="matrix(1, 0, 0, 1, 51.0999, 16.15)">
<g>
<g transform="rotate(270)">
<g>
<text y="0" font-family="'Droid Sans'" stroke-width="0" stroke="none" fill="#8c8c8c" text-anchor="end" font-size="3.49999" class="text" x="0">5V</text>
</g>
</g>
</g>
</g>
<g y="-0.349999" stroke-width="0" stroke="none" id="connector87terminal" height="0.699999" width="0.699999" fill="none" class="terminal" x="50.0499"/>
<line stroke-linecap="round" stroke-width="0.699999" stroke="#787878" id="connector90pin" y1="0.349999" fill="none" y2="14.75" class="pin" x1="64.8" x2="64.8"/>
<g transform="matrix(1, 0, 0, 1, 65.4999, 16.15)">
<g>
<g transform="rotate(270)">
<g>
<text y="0" font-family="'Droid Sans'" stroke-width="0" stroke="none" fill="#8c8c8c" text-anchor="end" font-size="3.49999" class="text" x="0">VIN</text>
</g>
</g>
</g>
</g>
<g y="-0.349999" stroke-width="0" stroke="none" id="connector90terminal" height="0.699999" width="0.699999" fill="none" class="terminal" x="64.4499"/>
<text y="76.4498" font-family="'Droid Sans'" stroke-width="0" stroke="none" id="label" fill="#000000" text-anchor="middle" font-size="4.25001" class="text" x="54.4501">Arduino</text>
<text y="80.9833" font-family="'Droid Sans'" stroke-width="0" stroke="none" id="label" fill="#000000" text-anchor="middle" font-size="4.25001" class="text" x="54.4501">Uno</text>
<text y="85.5167" font-family="'Droid Sans'" stroke-width="0" stroke="none" id="label" fill="#000000" text-anchor="middle" font-size="4.25001" class="text" x="54.4501">(Rev3)</text>
</g>
</g></g><g partID='57770'><g transform='translate(0,65.85)' ><g id="schematic">
<rect y="14.85" stroke-linecap="round" stroke-width="0.9" stroke="#000000" height="63.9" width="42.3" fill="#FFFFFF" class="interior rect" x="14.85"/>
<line stroke-linecap="round" stroke-width="0.699999" stroke="#787878" id="connector9pin" y1="43.2" fill="none" y2="43.2" class="pin" x1="57.2499" x2="71.6499"/>
<text y="43.8999" font-family="'Droid Sans'" stroke-width="0" stroke="none" fill="#8c8c8c" text-anchor="end" font-size="3.49999" class="text" x="55.8499">SDA</text>
<g y="42.8499" stroke-width="0" stroke="none" id="connector9terminal" height="0.699999" width="0.699999" fill="none" class="terminal" x="71.6499"/>
<line stroke-linecap="round" stroke-width="0.699999" stroke="#787878" id="connector8pin" y1="50.4" fill="none" y2="50.4" class="pin" x1="57.2499" x2="71.6499"/>
<text y="51.0999" font-family="'Droid Sans'" stroke-width="0" stroke="none" fill="#8c8c8c" text-anchor="end" font-size="3.49999" class="text" x="55.8499">SCL</text>
<g y="50.0499" stroke-width="0" stroke="none" id="connector8terminal" height="0.699999" width="0.699999" fill="none" class="terminal" x="71.6499"/>
<line stroke-linecap="round" stroke-width="0.699999" stroke="#787878" id="connector7" y1="43.2" fill="none" y2="43.2" class="pin" x1="0.349999" x2="14.75"/>
<text y="43.8999" font-family="'Droid Sans'" stroke-width="0" stroke="none" fill="#8c8c8c" text-anchor="start" font-size="3.49999" class="text" x="16.15">SQW</text>
<g y="42.8499" stroke-width="0" stroke="none" id="connector7terminal" height="0.699999" width="0.699999" fill="none" class="terminal" x="-0.349999"/>
<line stroke-linecap="round" stroke-width="0.699999" stroke="#787878" id="connector6" y1="78.8499" fill="none" y2="93.2499" class="pin" x1="36" x2="36"/>
<g transform="matrix(1, 0, 0, 1, 36.6999, 77.4499)">
<g>
<g transform="rotate(270)">
<g>
<text y="0" font-family="'Droid Sans'" stroke-width="0" stroke="none" fill="#8c8c8c" text-anchor="start" font-size="3.49999" class="text" x="0">GND</text>
</g>
</g>
</g>
</g>
<g y="93.2499" stroke-width="0" stroke="none" id="connector6terminal" height="0.699999" width="0.699999" fill="none" class="terminal" x="35.6499"/>
<line stroke-linecap="round" stroke-width="0.699999" stroke="#787878" id="connector5pin" y1="0.349999" fill="none" y2="14.75" class="pin" x1="36" x2="36"/>
<g transform="matrix(1, 0, 0, 1, 36.6999, 16.15)">
<g>
<g transform="rotate(270)">
<g>
<text y="0" font-family="'Droid Sans'" stroke-width="0" stroke="none" fill="#8c8c8c" text-anchor="end" font-size="3.49999" class="text" x="0">5V</text>
</g>
</g>
</g>
</g>
<g y="-0.349999" stroke-width="0" stroke="none" id="connector5terminal" height="0.699999" width="0.699999" fill="none" class="terminal" x="35.6499"/>
<text y="29.1161" font-family="'Droid Sans'" stroke-width="0" stroke="none" id="label" fill="#000000" text-anchor="middle" font-size="4.25001" class="text" x="36.4501">Real</text>
<text y="33.6495" font-family="'Droid Sans'" stroke-width="0" stroke="none" id="label" fill="#000000" text-anchor="middle" font-size="4.25001" class="text" x="36.4501">Time</text>
<text y="38.183" font-family="'Droid Sans'" stroke-width="0" stroke="none" id="label" fill="#000000" text-anchor="middle" font-size="4.25001" class="text" x="36.4501">Clock</text>
<text y="42.7164" font-family="'Droid Sans'" stroke-width="0" stroke="none" id="label" fill="#000000" text-anchor="middle" font-size="4.25001" class="text" x="36.4501">Module</text>
<text y="47.2499" font-family="'Droid Sans'" stroke-width="0" stroke="none" id="label" fill="#000000" text-anchor="middle" font-size="4.25001" class="text" x="36.4501">DS1307</text>
<text y="51.7836" font-family="'Droid Sans'" stroke-width="0" stroke="none" id="label" fill="#000000" text-anchor="middle" font-size="4.25001" class="text" x="36.4501">RTC</text>
<text y="56.317" font-family="'Droid Sans'" stroke-width="0" stroke="none" id="label" fill="#000000" text-anchor="middle" font-size="4.25001" class="text" x="36.4501">Breakout</text>
<text y="60.8505" font-family="'Droid Sans'" stroke-width="0" stroke="none" id="label" fill="#000000" text-anchor="middle" font-size="4.25001" class="text" x="36.4501">Board</text>
</g>
</g></g><g partID='66880'><g transform='translate(212.904,181.4)' ><g transform='matrix(-4.44089e-16,-1,1,-4.44089e-16,0,0)'  ><g xmlns="http://www.w3.org/2000/svg" id="schematic">
<line stroke-linecap="round" xmlns="http://www.w3.org/2000/svg" stroke-width="0.432002" stroke="#000000" y1="3.096" y2="0.216" class="other" x1="7.55002" x2="8.63003"/>
<line stroke-linecap="round" xmlns="http://www.w3.org/2000/svg" stroke-width="0.432002" stroke="#000000" y1="0.216" y2="5.976" class="other" x1="8.63003" x2="10.43"/>
<line stroke-linecap="round" xmlns="http://www.w3.org/2000/svg" stroke-width="0.432002" stroke="#000000" y1="5.976" y2="0.216" class="other" x1="10.43" x2="12.23"/>
<line stroke-linecap="round" xmlns="http://www.w3.org/2000/svg" stroke-width="0.432002" stroke="#000000" y1="0.216" y2="5.976" class="other" x1="12.23" x2="14.03"/>
<line stroke-linecap="round" xmlns="http://www.w3.org/2000/svg" stroke-width="0.432002" stroke="#000000" y1="5.976" y2="0.216" class="other" x1="14.03" x2="15.8301"/>
<line stroke-linecap="round" xmlns="http://www.w3.org/2000/svg" stroke-width="0.432002" stroke="#000000" y1="0.216" y2="5.976" class="other" x1="15.8301" x2="17.6301"/>
<line stroke-linecap="round" xmlns="http://www.w3.org/2000/svg" stroke-width="0.432002" stroke="#000000" y1="5.976" y2="0.216" class="other" x1="17.6301" x2="19.4301"/>
<line stroke-linecap="round" xmlns="http://www.w3.org/2000/svg" stroke-width="0.432002" stroke="#000000" y1="0.216" y2="5.976" class="other" x1="19.4301" x2="21.2301"/>
<line stroke-linecap="round" xmlns="http://www.w3.org/2000/svg" stroke-width="0.432002" stroke="#000000" y1="5.976" y2="3.096" class="other" x1="21.2301" x2="21.9501"/>
<line stroke-linecap="round" xmlns="http://www.w3.org/2000/svg" stroke-width="0.700001" connectorname="2" stroke="#787878" id="connector1pin" y1="3.096" y2="3.096" class="pin" x1="29.1502" x2="21.9501"/>
<g y="3.096" xmlns="http://www.w3.org/2000/svg" stroke-width="0" stroke="none" id="connector1terminal" height="0.000283465" width="0.000283466" fill="none" class="terminal" x="29.1502"/>
<text y="2.046" xmlns="http://www.w3.org/2000/svg" font-family="'Droid Sans'" stroke-width="0" stroke="none" fill="#8c8c8c" text-anchor="middle" font-size="2.50001" class="text" x="25.5501">2</text>
<line stroke-linecap="round" xmlns="http://www.w3.org/2000/svg" stroke-width="0.700001" connectorname="1" stroke="#787878" id="connector0pin" y1="3.096" y2="3.096" class="pin" x1="0.350001" x2="7.55002"/>
<g y="3.096" xmlns="http://www.w3.org/2000/svg" stroke-width="0" stroke="none" id="connector0terminal" height="0.000283465" width="0.000283466" fill="none" class="terminal" x="0.350001"/>
<text y="2.046" xmlns="http://www.w3.org/2000/svg" font-family="'Droid Sans'" stroke-width="0" stroke="none" fill="#8c8c8c" text-anchor="middle" font-size="2.50001" class="text" x="3.95001">1</text>
</g>
</g></g></g><g partID='67010'><g transform='translate(206.099,130.434)' ><g id="schematic">
<g>
<path d="M13.5,14.966L9.9,14.966c-0.193,0,-0.35,-0.156,-0.35,-0.35s0.156,-0.35,0.35,-0.35L13.5,14.266c0.193,0,0.35,0.156,0.35,0.35S13.694,14.966,13.5,14.966z"/>
</g>
<g>
<path d="M9.9,14.966L6.3,14.966c-0.193,0,-0.35,-0.156,-0.35,-0.35s0.157,-0.35,0.35,-0.35l3.6,0c0.193,0,0.35,0.156,0.35,0.35S10.093,14.966,9.9,14.966z"/>
</g>
<g>
<polygon points="9.9,14.616,6.3,7.416,9.9,7.416,13.5,7.416" fill="#FFFFFF"/>
<path d="M9.9,15.398L5.734,7.066l8.333,0L9.9,15.398zM6.866,7.766L9.9,13.834l3.034,-6.068L6.866,7.766z"/>
</g>
<g>
<path d="M9.9,14.841c-0.124,0,-0.225,-0.101,-0.225,-0.225l0,-7.2c0,-0.124,0.101,-0.225,0.225,-0.225s0.225,0.101,0.225,0.225l0,7.2C10.124,14.74,10.024,14.841,9.9,14.841z"/>
</g>
<g>
<path d="M1.8,12.141c-0.058,0,-0.115,-0.021,-0.159,-0.065c-0.088,-0.088,-0.088,-0.23,0,-0.318l2.34,-2.341c0.088,-0.088,0.23,-0.088,0.318,0s0.088,0.23,0,0.318l-2.34,2.341C1.915,12.12,1.858,12.141,1.8,12.141z"/>
</g>
<g>
<path d="M2.16,15.381c-0.058,0,-0.115,-0.021,-0.159,-0.065c-0.088,-0.088,-0.088,-0.23,0,-0.318l2.34,-2.34c0.088,-0.088,0.23,-0.088,0.318,0s0.088,0.23,0,0.318l-2.34,2.34C2.276,15.359,2.218,15.381,2.16,15.381z"/>
</g>
<g id="connector0pin">
<path fill="#787878" d="M9.9,22.166c-0.193,0,-0.35,-0.156,-0.35,-0.35l0,-7.2c0,-0.193,0.156,-0.35,0.35,-0.35s0.35,0.156,0.35,0.35l0,7.2C10.249,22.01,10.093,22.166,9.9,22.166z"/>
</g>
<g id="connector0terminal">
<rect y="21.816" height="0.001" fill="none" width="0.001" x="9.9"/>
</g>
<g transform="matrix(1, 0, 0, 1, 3.429, 6.4262)">
<g>
<g transform="rotate(270)">
<g>
<g enable-background="new    ">
<path fill="#787878" d="M-11.647,5.54l-0.891,0L-12.538,5.388l0.342,-0.372c0.049,-0.053,0.093,-0.101,0.131,-0.145s0.071,-0.086,0.099,-0.128c0.026,-0.042,0.047,-0.084,0.062,-0.125c0.015,-0.043,0.021,-0.088,0.021,-0.138c0,-0.038,-0.005,-0.072,-0.017,-0.102s-0.027,-0.054,-0.047,-0.075c-0.021,-0.02,-0.045,-0.035,-0.073,-0.046s-0.06,-0.016,-0.094,-0.016c-0.062,0,-0.118,0.013,-0.167,0.038c-0.051,0.024,-0.098,0.057,-0.143,0.096l-0.1,-0.116c0.025,-0.023,0.055,-0.046,0.084,-0.065c0.029,-0.021,0.063,-0.039,0.097,-0.054s0.071,-0.026,0.109,-0.036c0.038,-0.008,0.079,-0.013,0.121,-0.013c0.063,0,0.119,0.009,0.169,0.026c0.051,0.018,0.094,0.043,0.129,0.076c0.035,0.032,0.063,0.072,0.082,0.119c0.019,0.048,0.028,0.101,0.028,0.16c0,0.056,-0.009,0.108,-0.026,0.158c-0.017,0.05,-0.041,0.1,-0.07,0.148c-0.031,0.048,-0.066,0.097,-0.109,0.146c-0.041,0.049,-0.087,0.1,-0.136,0.152L-12.32,5.37l0,0.008l0.673,0L-11.647,5.54z"/>
</g>
</g>
</g>
</g>
</g>
<g id="connector1pin">
<path fill="#787878" d="M9.9,7.766c-0.193,0,-0.35,-0.157,-0.35,-0.35l0,-7.2c0,-0.193,0.156,-0.35,0.35,-0.35s0.35,0.157,0.35,0.35l0,7.2C10.249,7.609,10.093,7.766,9.9,7.766z"/>
</g>
<g id="connector1terminal">
<polygon points="9.9,0.216,9.901,0.216,9.901,0.216" fill="none"/>
</g>
<g transform="matrix(1, 0, 0, 1, 3.429, 1.3462)">
<g>
<g transform="rotate(270)">
<g>
<g enable-background="new    ">
<path fill="#787878" d="M-2.616,5.54l-0.172,0L-2.788,4.648c0,-0.028,0,-0.058,0,-0.09s0.001,-0.063,0.002,-0.095c0.001,-0.032,0.002,-0.063,0.003,-0.092c0.001,-0.028,0.002,-0.054,0.002,-0.076c-0.011,0.012,-0.021,0.021,-0.029,0.03s-0.017,0.017,-0.026,0.024s-0.018,0.016,-0.028,0.025c-0.01,0.008,-0.021,0.019,-0.035,0.03l-0.145,0.118l-0.094,-0.12l0.374,-0.292l0.146,0L-2.618,5.54z"/>
</g>
</g>
</g>
</g>
</g>
<g>
<path d="M0.18,13.536l1.08,-2.521l1.44,1.438L0.18,13.536z"/>
</g>
<g>
<path d="M0.54,16.776l1.08,-2.521l1.438,1.438L0.54,16.776z"/>
</g>
</g>
</g></g><g partID='67620'><line stroke-linecap='round' stroke='#33ffc5' x1='216' y1='152.25' x2='216' y2='152.25' stroke-width='0.4' /></g><g partID='64240'><line stroke-linecap='round' stroke='#404040' x1='151.2' y1='195.45' x2='151.2' y2='181.05' stroke-width='0.699998' /></g><g partID='64120'><line stroke-linecap='round' stroke='#404040' x1='237.6' y1='195.45' x2='151.2' y2='195.45' stroke-width='0.699998' /></g><g partID='64130'><line stroke-linecap='round' stroke='#404040' x1='237.6' y1='130.65' x2='237.6' y2='195.45' stroke-width='0.699998' /></g><circle  fill="black" cx="237.6" cy="130.65" r="1.44" stroke-width="0" stroke="none" /><g partID='64370'><line stroke-linecap='round' stroke='#404040' x1='237.6' y1='195.45' x2='237.6' y2='130.65' stroke-width='0.699998' /></g><circle  fill="black" cx="237.6" cy="130.65" r="1.44" stroke-width="0" stroke="none" /><g partID='64470'><line stroke-linecap='round' stroke='#404040' x1='259.2' y1='195.45' x2='237.6' y2='195.45' stroke-width='0.699998' /></g><g partID='64380'><line stroke-linecap='round' stroke='#404040' x1='259.2' y1='130.65' x2='259.2' y2='195.45' stroke-width='0.699998' /></g><g partID='64580'><line stroke-linecap='round' stroke='#ab58a2' x1='259.2' y1='87.45' x2='266.4' y2='87.45' stroke-width='0.699998' /></g><g partID='64590'><line stroke-linecap='round' stroke='#ab58a2' x1='259.2' y1='101.85' x2='259.2' y2='87.45' stroke-width='0.699998' /></g><circle  fill="black" cx="259.2" cy="101.85" r="1.44" stroke-width="0" stroke="none" /><g partID='64700'><line stroke-linecap='round' stroke='#cc1414' x1='223.2' y1='80.25' x2='266.4' y2='80.25' stroke-width='0.699998' /></g><g partID='64820'><line stroke-linecap='round' stroke='#cc1414' x1='223.2' y1='51.45' x2='223.2' y2='80.25' stroke-width='0.699998' /></g><g partID='64710'><line stroke-linecap='round' stroke='#cc1414' x1='266.4' y1='51.45' x2='223.2' y2='51.45' stroke-width='0.699998' /></g><circle  fill="black" cx="266.4" cy="51.45" r="1.44" stroke-width="0" stroke="none" /><g partID='65060'><line stroke-linecap='round' stroke='#cc1414' x1='223.2' y1='51.45' x2='266.4' y2='51.45' stroke-width='0.699998' /></g><circle  fill="black" cx="266.4" cy="51.45" r="1.44" stroke-width="0" stroke="none" /><g partID='65310'><line stroke-linecap='round' stroke='#cc1414' x1='144' y1='1.05' x2='223.2' y2='1.05' stroke-width='0.699998' /></g><g partID='65220'><line stroke-linecap='round' stroke='#cc1414' x1='223.2' y1='1.05' x2='223.2' y2='51.45' stroke-width='0.699998' /></g><g partID='65070'><line stroke-linecap='round' stroke='#cc1414' x1='144' y1='15.4501' x2='144' y2='1.05' stroke-width='0.699998' /></g><circle  fill="black" cx="144" cy="15.4501" r="1.44" stroke-width="0" stroke="none" /><g partID='65420'><line stroke-linecap='round' stroke='#33ffc5' x1='237.6' y1='58.65' x2='237.6' y2='101.85' stroke-width='0.699998' /></g><circle  fill="black" cx="237.6" cy="101.85" r="1.44" stroke-width="0" stroke="none" /><g partID='65430'><line stroke-linecap='round' stroke='#33ffc5' x1='266.4' y1='58.65' x2='237.6' y2='58.65' stroke-width='0.699998' /></g><g partID='65540'><line stroke-linecap='round' stroke='#33ffc5' x1='237.6' y1='58.65' x2='237.6' y2='101.85' stroke-width='0.699998' /></g><circle  fill="black" cx="237.6" cy="101.85" r="1.44" stroke-width="0" stroke="none" /><g partID='65550'><line stroke-linecap='round' stroke='#33ffc5' x1='201.6' y1='58.65' x2='237.6' y2='58.65' stroke-width='0.699998' /></g><g partID='65720'><line stroke-linecap='round' stroke='#ab58a2' x1='259.2' y1='87.45' x2='259.2' y2='101.85' stroke-width='0.699998' /></g><circle  fill="black" cx="259.2" cy="101.85" r="1.44" stroke-width="0" stroke="none" /><g partID='65640'><line stroke-linecap='round' stroke='#ab58a2' x1='216' y1='87.45' x2='259.2' y2='87.45' stroke-width='0.699998' /></g><g partID='65790'><line stroke-linecap='round' stroke='#ab58a2' x1='216' y1='65.85' x2='216' y2='87.45' stroke-width='0.699998' /></g><g partID='65650'><line stroke-linecap='round' stroke='#ab58a2' x1='201.6' y1='65.85' x2='216' y2='65.85' stroke-width='0.699998' /></g><g partID='59270'><line stroke-linecap='round' stroke='#cc1414' x1='35.9999' y1='1.05' x2='35.9999' y2='65.85' stroke-width='0.699998' /></g><g partID='59210'><line stroke-linecap='round' stroke='#cc1414' x1='144' y1='1.05' x2='35.9999' y2='1.05' stroke-width='0.699998' /></g><g partID='59220'><line stroke-linecap='round' stroke='#cc1414' x1='144' y1='15.4501' x2='144' y2='1.05' stroke-width='0.699998' /></g><circle  fill="black" cx="144" cy="15.4501" r="1.44" stroke-width="0" stroke="none" /><g partID='59340'><line stroke-linecap='round' stroke='#404040' x1='151.466' y1='195.716' x2='151.2' y2='181.05' stroke-width='0.699998' /></g><g partID='59400'><line stroke-linecap='round' stroke='#404040' x1='35.9999' y1='195.45' x2='151.466' y2='195.716' stroke-width='0.699998' /></g><g partID='59350'><line stroke-linecap='round' stroke='#404040' x1='35.9999' y1='159.45' x2='35.9999' y2='195.45' stroke-width='0.699998' /></g><g partID='59470'><line stroke-linecap='round' stroke='#25cc35' x1='93.5999' y1='116.25' x2='71.9999' y2='116.25' stroke-width='0.699998' /></g><g partID='59480'><line stroke-linecap='round' stroke='#25cc35' x1='93.5999' y1='116.25' x2='93.5999' y2='116.25' stroke-width='0.699998' /></g><g partID='59550'><line stroke-linecap='round' stroke='#fff800' x1='93.5999' y1='109.05' x2='71.9999' y2='109.05' stroke-width='0.699998' /></g><g partID='59560'><line stroke-linecap='round' stroke='#fff800' x1='93.5999' y1='109.05' x2='93.5999' y2='109.05' stroke-width='0.699998' /></g><g partID='67660'><line stroke-linecap='round' stroke='#404040' x1='237.678' y1='195.582' x2='237.6' y2='130.65' stroke-width='0.699998' /></g><circle  fill="black" cx="237.6" cy="130.65" r="1.44" stroke-width="0" stroke="none" /><g partID='67670'><line stroke-linecap='round' stroke='#404040' x1='216' y1='181.05' x2='215.994' y2='195.582' stroke-width='0.699998' /></g><g partID='67780'><line stroke-linecap='round' stroke='#404040' x1='215.994' y1='195.582' x2='237.678' y2='195.582' stroke-width='0.699998' /></g><g partID='67910'><line stroke-linecap='round' stroke='#418dd9' x1='215.994' y1='109.133' x2='216' y2='130.65' stroke-width='0.699998' /></g><g partID='67920'><line stroke-linecap='round' stroke='#418dd9' x1='201.6' y1='109.05' x2='215.994' y2='109.133' stroke-width='0.699998' /></g><g partID='57770' id='partLabel'><g transform='translate(0,59.05)' ><g font-size='5' font-style='normal' font-weight='normal' fill='#000000' font-family="'DroidSans'" id='schematicLabel' fill-opacity='1' stroke='none' ><text x='0' y='3.75'>Part1</text></g></g></g><g partID='58250' id='partLabel'><g transform='translate(85.1999,34.2501)' ><g transform='matrix(0,-1,1,0,0,0)'  ><g font-size='5' font-style='normal' font-weight='normal' fill='#000000' font-family="'DroidSans'" id='schematicLabel' fill-opacity='1' stroke='none' ><text x='0' y='3.75'>Part2</text></g></g></g></g><g partID='60050' id='partLabel'><g transform='translate(264.4,44.25)' ><g transform='matrix(-2.22045e-16,-1,1,-2.22045e-16,0,0)'  ><g font-size='5' font-style='normal' font-weight='normal' fill='#000000' font-family="'DroidSans'" id='schematicLabel' fill-opacity='1' stroke='none' ><text x='0' y='3.75'>J1</text></g></g></g></g><g partID='60080' id='partLabel'><g transform='translate(264.4,73.05)' ><g transform='matrix(-2.22045e-16,-1,1,-2.22045e-16,0,0)'  ><g font-size='5' font-style='normal' font-weight='normal' fill='#000000' font-family="'DroidSans'" id='schematicLabel' fill-opacity='1' stroke='none' ><text x='0' y='3.75'>J2</text></g></g></g></g><g partID='60360' id='partLabel'><g transform='translate(220.904,124.7)' ><g transform='matrix(-2.22045e-16,-1,1,-2.22045e-16,0,0)'  ><g font-size='5' font-style='normal' font-weight='normal' fill='#000000' font-family="'DroidSans'" id='schematicLabel' fill-opacity='1' stroke='none' ><text x='0' y='3.75'>R1</text><text x='0' y='8.75'>10k&#x3a9;</text></g></g></g></g><g partID='60390' id='partLabel'><g transform='translate(265.304,123.5)' ><g transform='matrix(-2.22045e-16,-1,1,-2.22045e-16,0,0)'  ><g font-size='5' font-style='normal' font-weight='normal' fill='#000000' font-family="'DroidSans'" id='schematicLabel' fill-opacity='1' stroke='none' ><text x='0' y='3.75'>R2</text><text x='0' y='8.75'>10k&#x3a9;</text></g></g></g></g><g partID='66880' id='partLabel'><g transform='translate(220.249,172.442)' ><g transform='matrix(-2.22045e-16,-1,1,-2.22045e-16,0,0)'  ><g font-size='5' font-style='normal' font-weight='normal' fill='#000000' font-family="'DroidSans'" id='schematicLabel' fill-opacity='1' stroke='none' ><text x='0' y='3.75'>R3</text><text x='0' y='8.75'>220&#x3a9;</text></g></g></g></g></svg>